<?xml version="1.0" encoding="UTF-8"?>
<svg xmlns="http://www.w3.org/2000/svg" width="144" height="48" fill="none">
  <path d="M19.038 21.514a2.411 2.411 0 0 0-2.229 1.46 2.335 2.335 0 0 0 .522 2.58c.69.677 1.727.88 2.628.513a2.366 2.366 0 0 0 1.487-2.19c-.002-1.304-1.079-2.361-2.408-2.363Z" fill="#184C71"></path>
  <path d="M13.279 21.988c-.78 0-1.483.462-1.781 1.17a1.867 1.867 0 0 0 .42 2.062 1.953 1.953 0 0 0 2.1.408 1.892 1.892 0 0 0 1.188-1.75c0-.502-.203-.983-.565-1.337a1.942 1.942 0 0 0-1.362-.553Z" fill="#C11F5A"></path>
  <path d="M7.377 22.344a1.566 1.566 0 0 0-1.449.947 1.517 1.517 0 0 0 .34 1.677c.447.44 1.121.57 1.706.332.586-.238.967-.8.966-1.422a1.52 1.52 0 0 0-.458-1.085 1.577 1.577 0 0 0-1.105-.45Z" fill="#DE5126"></path>
  <path d="M1.487 22.696a1.207 1.207 0 0 0-1.117.73 1.17 1.17 0 0 0 .26 1.292c.346.34.866.44 1.317.257.451-.184.745-.617.744-1.097 0-.653-.54-1.182-1.204-1.182Z" fill="#F38420"></path>
  <path d="M17.629 17.141c-.612-.6-1.603-.599-2.214.001a1.518 1.518 0 0 0 0 2.174c.611.6 1.602.6 2.214 0 .294-.288.459-.68.459-1.087 0-.408-.165-.8-.46-1.088ZM16.5 27.923c-.866 0-1.566.688-1.566 1.537 0 .85.7 1.537 1.565 1.537s1.566-.688 1.566-1.537-.701-1.537-1.566-1.537Z" fill="#184C71"></path>
  <path d="M32.55 12.985c0-.956-.587-1.818-1.487-2.184a2.44 2.44 0 0 0-2.623.512 2.333 2.333 0 0 0-.522 2.577 2.409 2.409 0 0 0 2.224 1.459c.639 0 1.252-.248 1.703-.692a2.339 2.339 0 0 0 .705-1.672ZM24.02 14.497a2.44 2.44 0 0 0-2.627-.521 2.364 2.364 0 0 0-1.49 2.186c0 .958.588 1.82 1.49 2.186a2.44 2.44 0 0 0 2.626-.521 2.334 2.334 0 0 0 0-3.33ZM20.65 29.938a2.333 2.333 0 0 0-.531 2.578 2.408 2.408 0 0 0 2.226 1.464c.976 0 1.855-.578 2.226-1.464a2.333 2.333 0 0 0-.53-2.578 2.439 2.439 0 0 0-3.391 0ZM27.734 34.824c0 1.305 1.078 2.364 2.408 2.364 1.33 0 2.408-1.059 2.408-2.364 0-1.306-1.078-2.364-2.408-2.364-1.33 0-2.408 1.058-2.408 2.364ZM28.21 40.49c0 .765.47 1.455 1.19 1.747.72.293 1.55.131 2.1-.41a1.867 1.867 0 0 0 .419-2.062 1.928 1.928 0 0 0-1.78-1.168c-1.065 0-1.928.847-1.928 1.892ZM28.574 46.271c0 .622.38 1.184.965 1.422a1.586 1.586 0 0 0 1.707-.33c.448-.44.582-1.102.34-1.676a1.566 1.566 0 0 0-1.446-.95c-.864 0-1.564.687-1.566 1.534ZM32.065 7.32c0-1.046-.863-1.893-1.927-1.893s-1.927.847-1.927 1.892.863 1.893 1.927 1.893c.511 0 1.002-.199 1.364-.554.361-.355.564-.837.563-1.339ZM26.084 10.413c0-.849-.7-1.537-1.565-1.537s-1.566.688-1.566 1.537.701 1.537 1.566 1.537c.864 0 1.565-.688 1.565-1.537ZM31.705 1.537c0-.849-.7-1.537-1.565-1.537s-1.566.688-1.566 1.537.701 1.537 1.566 1.537c.864 0 1.565-.688 1.565-1.537ZM19.591 10.82a1.953 1.953 0 0 0-2.1-.41c-.72.293-1.19.983-1.19 1.748 0 .766.47 1.456 1.19 1.748.72.293 1.55.131 2.1-.41a1.87 1.87 0 0 0 0-2.675ZM15.165 6.99a1.587 1.587 0 0 0-1.706-.335 1.537 1.537 0 0 0-.967 1.42c0 .622.382 1.183.967 1.42a1.587 1.587 0 0 0 1.706-.333c.295-.288.46-.679.46-1.087 0-.407-.165-.798-.46-1.086ZM16.911 34.277a1.868 1.868 0 0 0 .001 2.676 1.953 1.953 0 0 0 2.725 0 1.868 1.868 0 0 0 .001-2.676 1.943 1.943 0 0 0-1.363-.556c-.512 0-1.002.2-1.364.556ZM12.998 38.62c-.448.439-.582 1.1-.34 1.675.242.574.813.949 1.447.949.633 0 1.204-.375 1.446-.95a1.517 1.517 0 0 0-.34-1.675c-.611-.6-1.601-.6-2.213 0ZM23.381 36.283c-.448.44-.582 1.1-.34 1.675.242.575.813.95 1.446.95.634 0 1.205-.375 1.447-.95a1.517 1.517 0 0 0-.34-1.675 1.575 1.575 0 0 0-1.107-.452c-.415 0-.813.163-1.106.452Z" fill="#728692"></path>
  <path d="M25.577 28.578a6.198 6.198 0 0 1-1.91-4.667 6.187 6.187 0 0 1 1.922-4.67 6.563 6.563 0 0 1 4.708-1.842 6.808 6.808 0 0 1 3.76 1.06 5.82 5.82 0 0 1 2.349 2.972h-3.14c-.582-1.11-1.572-1.665-2.97-1.665a3.823 3.823 0 0 0-2.87 1.14c-.735.76-1.103 1.77-1.105 3.027-.002 1.258.366 2.26 1.104 3.008a3.632 3.632 0 0 0 2.713 1.14c1.072 0 1.914-.258 2.526-.774a3.38 3.38 0 0 0 1.13-2.089h-4.297v-1.942h7.112v1.942a6.1 6.1 0 0 1-2.08 3.637c-1.164 1.042-2.628 1.562-4.39 1.56a6.35 6.35 0 0 1-4.562-1.837ZM46.848 23.886c-.392.44-.895.77-1.458.957a6.385 6.385 0 0 1-2.238.356h-2.156v5.071h-2.617V17.54h4.773c1.497 0 2.651.37 3.461 1.11a3.401 3.401 0 0 1 1.218 2.598c.01.967-.34 1.905-.983 2.638Zm-5.852-.655h2.156a2.089 2.089 0 0 0 1.494-.502 2.033 2.033 0 0 0 0-2.716 2.078 2.078 0 0 0-1.503-.502h-2.156l.009 3.72ZM51.347 21.006c-.016.417.123.825.39 1.149.267.308.613.54 1.003.674.445.158.901.286 1.364.383.502.11 1.003.234 1.504.375.474.133.932.318 1.365.552.42.23.768.571 1.003.985.275.496.41 1.055.39 1.62a3.438 3.438 0 0 1-1.153 2.572c-.767.729-1.803 1.099-3.108 1.11-1.309 0-2.368-.297-3.188-.885a2.805 2.805 0 0 1-1.224-2.397h1.8c.032.536.284 1.037.698 1.387.413.353 1.03.53 1.848.53a2.9 2.9 0 0 0 1.95-.622c.452-.35.718-.883.724-1.448a1.877 1.877 0 0 0-.39-1.276 2.313 2.313 0 0 0-1.003-.666 9.893 9.893 0 0 0-1.365-.375 18.58 18.58 0 0 1-1.504-.374 6.547 6.547 0 0 1-1.364-.555 2.623 2.623 0 0 1-1.004-1.005 3.218 3.218 0 0 1-.39-1.65 3.204 3.204 0 0 1 1.16-2.578c.773-.651 1.783-.977 3.028-.977s2.236.278 2.97.833a3.288 3.288 0 0 1 1.275 2.344h-1.877a1.859 1.859 0 0 0-.715-1.276 2.639 2.639 0 0 0-1.729-.53 2.794 2.794 0 0 0-1.772.516c-.473.39-.728.979-.686 1.584ZM64.215 28.92h1.393v1.35h-1.71c-1.768 0-2.653-.857-2.653-2.572v-6.104h-1.32v-1.34h1.32V17.78h1.696v2.475h2.636v1.351h-2.636v6.105c-.035.34.066.68.282.948.284.21.64.303.992.261ZM69.155 20.254v1.698c.606-1.239 1.642-1.86 3.108-1.861v1.734h-.447c-.866 0-1.525.22-1.978.663-.452.444-.678 1.215-.678 2.308v5.474h-1.695V20.255h1.69ZM75.026 28.966c-.927-.98-1.391-2.232-1.393-3.756-.002-1.524.46-2.758 1.384-3.702a4.663 4.663 0 0 1 3.482-1.415 4.23 4.23 0 0 1 2.26.602c.63.38 1.14.923 1.478 1.568v-2.009h1.696V30.27h-1.696v-2.044a4 4 0 0 1-1.478 1.595 4.188 4.188 0 0 1-2.26.613 4.598 4.598 0 0 1-3.473-1.468Zm6.217-.976a3.698 3.698 0 0 0 1.011-2.716 3.703 3.703 0 0 0-1.011-2.72 3.307 3.307 0 0 0-2.433-1.02 3.363 3.363 0 0 0-2.433.984c-.675.659-1.013 1.552-1.015 2.68a3.8 3.8 0 0 0 1.023 2.756c.623.667 1.5 1.05 2.42 1.056a3.347 3.347 0 0 0 2.438-1.02ZM90.086 28.92h1.394v1.35h-1.71c-1.769 0-2.653-.857-2.653-2.572v-6.104h-1.32v-1.34h1.32V17.78h1.695v2.475h2.636v1.352h-2.636v6.104c-.035.34.067.68.282.948.285.21.64.303.992.261ZM97.607 30.434a4.735 4.735 0 0 1-3.566-1.423c-.915-.949-1.373-2.201-1.373-3.757s.464-2.804 1.393-3.746a4.85 4.85 0 0 1 3.611-1.415c1.481 0 2.67.447 3.566 1.34a4.621 4.621 0 0 1 1.337 3.422c.001.328-.023.657-.073.982h-8.108c0 .879.341 1.725.956 2.364.6.582 1.417.895 2.26.865.618.02 1.229-.139 1.755-.457a2.711 2.711 0 0 0 1.048-1.202h1.82a4.594 4.594 0 0 1-1.661 2.17 4.91 4.91 0 0 1-2.965.857Zm2.284-8.107a3.371 3.371 0 0 0-4.493-.017 3.355 3.355 0 0 0-.986 2.325h6.408a3.103 3.103 0 0 0-.93-2.308ZM105.401 28.966c-.927-.98-1.391-2.232-1.393-3.756-.002-1.524.462-2.758 1.393-3.702a4.663 4.663 0 0 1 3.481-1.415 4.23 4.23 0 0 1 2.275.602c.629.38 1.14.923 1.478 1.568v-2.009h1.695V30.52a4.454 4.454 0 0 1-1.353 3.363 4.765 4.765 0 0 1-3.436 1.304c-1.389 0-2.537-.316-3.445-.949a3.435 3.435 0 0 1-1.551-2.48h1.653c.18.597.584 1.106 1.13 1.423a4.046 4.046 0 0 0 2.21.555 3.053 3.053 0 0 0 2.201-.85c.588-.554.882-1.356.882-2.377v-2.3a4.005 4.005 0 0 1-1.478 1.595 4.191 4.191 0 0 1-2.275.614 4.597 4.597 0 0 1-3.467-1.451Zm6.217-.976a3.7 3.7 0 0 0 1.011-2.716 3.702 3.702 0 0 0-1.011-2.72 3.308 3.308 0 0 0-2.433-1.02 3.362 3.362 0 0 0-2.433.984c-.677.659-1.015 1.552-1.015 2.68a3.801 3.801 0 0 0 1.023 2.756c.623.667 1.5 1.05 2.421 1.056a3.348 3.348 0 0 0 2.437-1.02ZM118.798 18.326c-.215.215-.51.333-.817.327a1.087 1.087 0 0 1-.808-.327 1.1 1.1 0 0 1-.325-.802 1.098 1.098 0 0 1 .333-.805 1.163 1.163 0 0 1 1.617 0c.444.447.444 1.16 0 1.607Zm-1.673 11.944V20.255h1.695V30.27h-1.695ZM125.872 30.434a4.737 4.737 0 0 1-3.566-1.423c-.91-.949-1.365-2.203-1.365-3.762 0-1.56.465-2.808 1.394-3.746a4.849 4.849 0 0 1 3.611-1.415c1.481 0 2.669.447 3.566 1.34a4.628 4.628 0 0 1 1.345 3.421c.001.329-.023.657-.073.982h-8.125a3.403 3.403 0 0 0 .956 2.364 3.088 3.088 0 0 0 2.26.866c.618.02 1.229-.14 1.755-.458a2.71 2.71 0 0 0 1.048-1.201h1.82a4.594 4.594 0 0 1-1.661 2.17 4.91 4.91 0 0 1-2.965.862Zm2.284-8.107a3.371 3.371 0 0 0-4.493-.017 3.356 3.356 0 0 0-.987 2.325h6.409a3.091 3.091 0 0 0-.929-2.308ZM132.576 23.084a2.648 2.648 0 0 1 1.082-2.125 4.265 4.265 0 0 1 2.77-.866c1.13 0 2.018.283 2.664.85a3.216 3.216 0 0 1 1.057 2.324h-1.743c0-.505-.203-.991-.565-1.35a2.099 2.099 0 0 0-1.495-.511 2.325 2.325 0 0 0-1.506.447 1.422 1.422 0 0 0-.546 1.148c-.013.448.226.866.622 1.088.463.272.972.46 1.503.555.588.116 1.177.25 1.766.402a3.2 3.2 0 0 1 1.504.855c.44.492.663 1.135.621 1.79a2.361 2.361 0 0 1-1.068 1.941 4.546 4.546 0 0 1-2.775.794c-1.141 0-2.055-.278-2.741-.832a3.09 3.09 0 0 1-1.13-2.315h1.746c.003.51.222.996.605 1.34.43.353.978.536 1.537.514.553.03 1.1-.116 1.56-.419.334-.24.54-.614.564-1.02.023-.405-.139-.8-.443-1.075a2.487 2.487 0 0 0-1.116-.538 48.879 48.879 0 0 1-1.455-.347 19.955 19.955 0 0 1-1.461-.427 2.37 2.37 0 0 1-1.113-.794 2.231 2.231 0 0 1-.444-1.429Z" fill="#fff"></path>
  <path d="M141.348 20.81c.53-.451 1.317-.451 1.848 0 .471.498.471 1.268 0 1.767a1.412 1.412 0 0 1-1.848 0 1.276 1.276 0 0 1 0-1.768Zm.141 1.636c.306.32.781.42 1.193.25a1.05 1.05 0 0 0 .658-1.007 1 1 0 0 0-.283-.752 1.22 1.22 0 0 0-1.562 0 1 1 0 0 0-.283.752c-.018.28.082.557.277.763v-.006Zm.26-1.517h.599a.59.59 0 0 1 .41.133.432.432 0 0 1 .065.574.437.437 0 0 1-.26.172l.367.608h-.429l-.342-.58h-.04v.58h-.37v-1.487Zm.37.277v.358h.229a.187.187 0 0 0 .166-.113.18.18 0 0 0-.036-.195.17.17 0 0 0-.13-.05h-.229Z" fill="#818182"></path>
</svg>
